HIERARCHY
ROOT Hips
{
  OFFSET -356.087 71.2408 799.576
  CHANNELS 6 Xposition Yposition Zposition Zrotation Xrotation Yrotation
  JOINT Spine
  {
    OFFSET 0 8 0
    CHANNELS 6 Xposition Yposition Zposition Zrotation Xrotation Yrotation
    JOINT Spine1
    {
      OFFSET 2.05522e-05 7.99979 0.0586234
      CHANNELS 6 Xposition Yposition Zposition Zrotation Xrotation Yrotation
      JOINT Spine2
      {
        OFFSET -2.636e-05 8.00001 0
        CHANNELS 6 Xposition Yposition Zposition Zrotation Xrotation Yrotation
        JOINT Spine3
        {
          OFFSET 0 8 0
          CHANNELS 6 Xposition Yposition Zposition Zrotation Xrotation Yrotation
          JOINT Neck
          {
            OFFSET 0.000322403 17.0003 -0.000490405
            CHANNELS 6 Xposition Yposition Zposition Zrotation Xrotation Yrotation
            JOINT Head
            {
              OFFSET -1.37352e-05 10.7998 -8.82457e-05
              CHANNELS 6 Xposition Yposition Zposition Zrotation Xrotation Yrotation
              End Site
              {
                OFFSET 0 20.25 0
              }
            }
          }
          JOINT LeftShoulder
          {
            OFFSET 5.00032 16.9999 -0.000482903
            CHANNELS 6 Xposition Yposition Zposition Zrotation Xrotation Yrotation
            JOINT LeftShoulder2
            {
              OFFSET 6.45 0 0
              CHANNELS 6 Xposition Yposition Zposition Zrotation Xrotation Yrotation
              JOINT LeftArm
              {
                OFFSET 6.44997 -4.8729e-05 -0.000221167
                CHANNELS 6 Xposition Yposition Zposition Zrotation Xrotation Yrotation
                JOINT LeftForeArm
                {
                  OFFSET -4.4407e-05 -32.4 -2.08982
                  CHANNELS 6 Xposition Yposition Zposition Zrotation Xrotation Yrotation
                  JOINT LeftHand
                  {
                    OFFSET 8.79914e-05 -25.654 2.00005
                    CHANNELS 6 Xposition Yposition Zposition Zrotation Xrotation Yrotation
                    JOINT LeftHandThumb1
                    {
                      OFFSET -0.499984 -1.49996 2.64993
                      CHANNELS 6 Xposition Yposition Zposition Zrotation Xrotation Yrotation
                      JOINT LeftHandThumb2
                      {
                        OFFSET -3.85147e-05 -3.79996 3.69999
                        CHANNELS 6 Xposition Yposition Zposition Zrotation Xrotation Yrotation
                        JOINT LeftHandThumb3
                        {
                          OFFSET -8.65605e-05 -2.99993 2.70002
                          CHANNELS 6 Xposition Yposition Zposition Zrotation Xrotation Yrotation
                          End Site
                          {
                            OFFSET 2.14002e-05 -2.30003 1.80002
                          }
                        }
                      }
                    }
                    JOINT LeftHandIndex
                    {
                      OFFSET -2.87097e-05 -1.90006 1.60004
                      CHANNELS 6 Xposition Yposition Zposition Zrotation Xrotation Yrotation
                      JOINT LeftHandIndex1
                      {
                        OFFSET 1.29556e-05 -8.29996 1.89996
                        CHANNELS 6 Xposition Yposition Zposition Zrotation Xrotation Yrotation
                        JOINT LeftHandIndex2
                        {
                          OFFSET 0.0279446 -4.50001 -4.92978e-05
                          CHANNELS 6 Xposition Yposition Zposition Zrotation Xrotation Yrotation
                          JOINT LeftHandIndex3
                          {
                            OFFSET 3.78733e-05 -3.39996 0
                            CHANNELS 6 Xposition Yposition Zposition Zrotation Xrotation Yrotation
                            End Site
                            {
                              OFFSET -6.19874e-05 -2.60007 6.35207e-05
                            }
                          }
                        }
                      }
                    }
                    JOINT LeftHandMiddle
                    {
                      OFFSET -0.250008 -2.19998 0.400066
                      CHANNELS 6 Xposition Yposition Zposition Zrotation Xrotation Yrotation
                      JOINT LeftHandMiddle1
                      {
                        OFFSET -3.10196e-05 -8.30006 1.02318
                        CHANNELS 6 Xposition Yposition Zposition Zrotation Xrotation Yrotation
                        JOINT LeftHandMiddle2
                        {
                          OFFSET 1.10883e-05 -4.64999 -0.000277903
                          CHANNELS 6 Xposition Yposition Zposition Zrotation Xrotation Yrotation
                          JOINT LeftHandMiddle3
                          {
                            OFFSET -2.71941e-05 -3.30002 1.84638e-05
                            CHANNELS 6 Xposition Yposition Zposition Zrotation Xrotation Yrotation
                            End Site
                            {
                              OFFSET -1.31981e-05 -2.69995 0
                            }
                          }
                        }
                      }
                    }
                    JOINT LeftHandRing
                    {
                      OFFSET -0.50004 -2.09188 -0.799973
                      CHANNELS 6 Xposition Yposition Zposition Zrotation Xrotation Yrotation
                      JOINT LeftHandRing1
                      {
                        OFFSET 4.61534e-05 -7.75578 -0.200028
                        CHANNELS 6 Xposition Yposition Zposition Zrotation Xrotation Yrotation
                        JOINT LeftHandRing2
                        {
                          OFFSET -0.0470013 -3.79762 9.21836e-05
                          CHANNELS 6 Xposition Yposition Zposition Zrotation Xrotation Yrotation
                          JOINT LeftHandRing3
                          {
                            OFFSET 0.00423055 -3.39996 2.76596e-05
                            CHANNELS 6 Xposition Yposition Zposition Zrotation Xrotation Yrotation
                            End Site
                            {
                              OFFSET 0 -2.60004 -4.59597e-05
                            }
                          }
                        }
                      }
                    }
                    JOINT LeftHandPinky
                    {
                      OFFSET -0.749966 -1.74996 -1.84998
                      CHANNELS 6 Xposition Yposition Zposition Zrotation Xrotation Yrotation
                      JOINT LeftHandPinky1
                      {
                        OFFSET 3.5631e-05 -7.15006 -1.00001
                        CHANNELS 6 Xposition Yposition Zposition Zrotation Xrotation Yrotation
                        JOINT LeftHandPinky2
                        {
                          OFFSET 0.0593062 -2.99995 -5.45652e-05
                          CHANNELS 6 Xposition Yposition Zposition Zrotation Xrotation Yrotation
                          JOINT LeftHandPinky3
                          {
                            OFFSET -3.98679e-05 -2.3501 3.08159e-05
                            CHANNELS 6 Xposition Yposition Zposition Zrotation Xrotation Yrotation
                            End Site
                            {
                              OFFSET 0 -2.10001 0
                            }
                          }
                        }
                      }
                    }
                  }
                }
              }
            }
          }
          JOINT RightShoulder
          {
            OFFSET -4.99971 17.0001 -0.00045693
            CHANNELS 6 Xposition Yposition Zposition Zrotation Xrotation Yrotation
            JOINT RightShoulder2
            {
              OFFSET -6.45 0 0
              CHANNELS 6 Xposition Yposition Zposition Zrotation Xrotation Yrotation
              JOINT RightArm
              {
                OFFSET -6.45001 2.64272e-05 8.97097e-05
                CHANNELS 6 Xposition Yposition Zposition Zrotation Xrotation Yrotation
                JOINT RightForeArm
                {
                  OFFSET 1.05952e-05 -32.4 -2.00003
                  CHANNELS 6 Xposition Yposition Zposition Zrotation Xrotation Yrotation
                  JOINT RightHand
                  {
                    OFFSET 0.0764025 -25.6499 2.00006
                    CHANNELS 6 Xposition Yposition Zposition Zrotation Xrotation Yrotation
                    JOINT RightHandThumb1
                    {
                      OFFSET 0.499979 -1.50002 2.65
                      CHANNELS 6 Xposition Yposition Zposition Zrotation Xrotation Yrotation
                      JOINT RightHandThumb2
                      {
                        OFFSET 0.0565105 -3.8 3.70004
                        CHANNELS 6 Xposition Yposition Zposition Zrotation Xrotation Yrotation
                        JOINT RightHandThumb3
                        {
                          OFFSET 0.0310884 -2.99999 2.69998
                          CHANNELS 6 Xposition Yposition Zposition Zrotation Xrotation Yrotation
                          End Site
                          {
                            OFFSET -5.51649e-05 -2.30001 1.80001
                          }
                        }
                      }
                    }
                    JOINT RightHandIndex
                    {
                      OFFSET -0.000341288 -1.91725 1.60038
                      CHANNELS 6 Xposition Yposition Zposition Zrotation Xrotation Yrotation
                      JOINT RightHandIndex1
                      {
                        OFFSET 4.06267e-05 -8.3 1.9
                        CHANNELS 6 Xposition Yposition Zposition Zrotation Xrotation Yrotation
                        JOINT RightHandIndex2
                        {
                          OFFSET -1.71173e-05 -4.50001 0.0429842
                          CHANNELS 6 Xposition Yposition Zposition Zrotation Xrotation Yrotation
                          JOINT RightHandIndex3
                          {
                            OFFSET -1.25083e-05 -3.4 -7.72172e-05
                            CHANNELS 6 Xposition Yposition Zposition Zrotation Xrotation Yrotation
                            End Site
                            {
                              OFFSET -4.83414e-05 -2.59999 9.78714e-05
                            }
                          }
                        }
                      }
                    }
                    JOINT RightHandMiddle
                    {
                      OFFSET 0.250045 -2.20001 0.399938
                      CHANNELS 6 Xposition Yposition Zposition Zrotation Xrotation Yrotation
                      JOINT RightHandMiddle1
                      {
                        OFFSET 0 -8.30003 1.00437
                        CHANNELS 6 Xposition Yposition Zposition Zrotation Xrotation Yrotation
                        JOINT RightHandMiddle2
                        {
                          OFFSET 4.57172e-05 -4.64993 -5.5128e-05
                          CHANNELS 6 Xposition Yposition Zposition Zrotation Xrotation Yrotation
                          JOINT RightHandMiddle3
                          {
                            OFFSET -3.47617e-05 -3.23043 1.09967e-05
                            CHANNELS 6 Xposition Yposition Zposition Zrotation Xrotation Yrotation
                            End Site
                            {
                              OFFSET -5.03318e-05 -2.69996 -4.00146e-05
                            }
                          }
                        }
                      }
                    }
                    JOINT RightHandRing
                    {
                      OFFSET 0.499907 -2.14996 -0.800058
                      CHANNELS 6 Xposition Yposition Zposition Zrotation Xrotation Yrotation
                      JOINT RightHandRing1
                      {
                        OFFSET 0 -7.74994 -0.199943
                        CHANNELS 6 Xposition Yposition Zposition Zrotation Xrotation Yrotation
                        JOINT RightHandRing2
                        {
                          OFFSET 4.00392e-05 -3.81191 2.24802e-05
                          CHANNELS 6 Xposition Yposition Zposition Zrotation Xrotation Yrotation
                          JOINT RightHandRing3
                          {
                            OFFSET -5.37498e-05 -3.40006 -2.84684e-05
                            CHANNELS 6 Xposition Yposition Zposition Zrotation Xrotation Yrotation
                            End Site
                            {
                              OFFSET 5.58944e-05 -2.60003 5.35686e-05
                            }
                          }
                        }
                      }
                    }
                    JOINT RightHandPinky
                    {
                      OFFSET 0.749974 -1.74996 -1.83334
                      CHANNELS 6 Xposition Yposition Zposition Zrotation Xrotation Yrotation
                      JOINT RightHandPinky1
                      {
                        OFFSET 5.0096e-05 -7.15004 -1.00003
                        CHANNELS 6 Xposition Yposition Zposition Zrotation Xrotation Yrotation
                        JOINT RightHandPinky2
                        {
                          OFFSET 2.67832e-05 -3.00007 0.000108364
                          CHANNELS 6 Xposition Yposition Zposition Zrotation Xrotation Yrotation
                          JOINT RightHandPinky3
                          {
                            OFFSET 0 -2.34996 -6.16537e-05
                            CHANNELS 6 Xposition Yposition Zposition Zrotation Xrotation Yrotation
                            End Site
                            {
                              OFFSET 5.58249e-05 -2.1066 0.0170716
                            }
                          }
                        }
                      }
                    }
                  }
                }
              }
            }
          }
        }
      }
    }
  }
  JOINT LeftUpLeg
  {
    OFFSET 8.00001 0 -1.02553e-05
    CHANNELS 6 Xposition Yposition Zposition Zrotation Xrotation Yrotation
    JOINT LeftLeg
    {
      OFFSET -3.65304e-05 -45 -0.999999
      CHANNELS 6 Xposition Yposition Zposition Zrotation Xrotation Yrotation
      JOINT LeftFoot
      {
        OFFSET -6.1237e-05 -41 -2.00004
        CHANNELS 6 Xposition Yposition Zposition Zrotation Xrotation Yrotation
        JOINT LeftToeBase
        {
          OFFSET -5.65237e-05 -7.49999 12.5
          CHANNELS 6 Xposition Yposition Zposition Zrotation Xrotation Yrotation
          JOINT LeftFootToe
          {
            OFFSET 0 0 4
            CHANNELS 6 Xposition Yposition Zposition Zrotation Xrotation Yrotation
            End Site
            {
              OFFSET 0 0 0
            }
          }
        }
      }
    }
  }
  JOINT RightUpLeg
  {
    OFFSET -8.00001 0 1.02553e-05
    CHANNELS 6 Xposition Yposition Zposition Zrotation Xrotation Yrotation
    JOINT RightLeg
    {
      OFFSET 0 -45.0001 -1.00006
      CHANNELS 6 Xposition Yposition Zposition Zrotation Xrotation Yrotation
      JOINT RightFoot
      {
        OFFSET -7.38883e-05 -41.0001 -1.99995
        CHANNELS 6 Xposition Yposition Zposition Zrotation Xrotation Yrotation
        JOINT RightToeBase
        {
          OFFSET 2.64989e-05 -7.49999 12.5
          CHANNELS 6 Xposition Yposition Zposition Zrotation Xrotation Yrotation
          JOINT RightFootToe
          {
            OFFSET 0 0 4
            CHANNELS 6 Xposition Yposition Zposition Zrotation Xrotation Yrotation
            End Site
            {
              OFFSET 0 0 0
            }
          }
        }
      }
    }
  }
}
MOTION
Frames:	3
Frame Time:	0.0111111
-348.052 71.9658 812.559 -9.09374 13.5823 -171.331 0 8 -1.13687e-13 1.55419 18.7734 -11.2552 5.68434e-14 8 0 0.123738 9.18738 1.56595 0 8 0 0.0933319 4.60124 0.783883 0 8 -1.13687e-13 0.093082 4.58612 0.78143 0 17 0 0.280767 3.52639 1.6188 0 10.8 0 0.492319 8.22387 3.77079 5 17 0 -0.64199 1.72335 7.08264 6.45 1.13687e-13 0 -2.04506 -0.675462 -4.81711 6.45 0 0 36.1351 -60.4591 1.52766 0 -32.4 -2 -12.2634 -29.1009 -8.01955 0 -25.65 2 24.6009 -39.7572 -25.7811 -0.5 -1.5 2.65 13.7627 -21.2829 -5.13324 0 -3.8 3.7 0.108934 40.2529 -0.157091 0 -3 2.7 0.0232396 11.2204 -0.0199592 -5.68434e-14 -1.9 1.6 -7.16577e-06 5.46474e-06 1.19421e-05 0 -8.3 1.9 -14.7737 -26.5892 -3.22307 -2.84217e-14 -4.5 5.68434e-14 -0.152691 0.0890383 -0.116056 -2.84217e-14 -3.4 5.68434e-14 -2.78703e-06 -0.0484337 -0.116996 -0.25 -2.2 0.4 -7.16577e-06 5.46474e-06 1.19421e-05 0 -8.3 1 -10.208 -19.5742 -1.58969 0 -4.65 0 -3.02425 0.0453525 -1.51715e-05 0 -3.3 -5.68434e-14 -3.09448e-05 0.00583518 3.6101e-05 -0.5 -2.15 -0.8 -7.16577e-06 5.46474e-06 1.19421e-05 -5.68434e-14 -7.75 -0.2 -3.51744 -7.08519 -0.134617 5.68434e-14 -3.8 0 -2.33619 0.0587157 7.45582e-05 -2.84217e-14 -3.4 -5.68434e-14 -3.22279e-05 0.0651402 4.26737e-05 -0.75 -1.75 -1.85 -7.16577e-06 5.46474e-06 1.19421e-05 0 -7.15 -1 -0.00924934 0.778928 0.0103859 1.13687e-13 -3 2.84217e-14 -0.203247 0.140485 0.104567 0 -2.35 -5.68434e-14 -0.000216315 0.125129 0.0903525 -5 17 1.13687e-13 11.5843 -1.28818 0.755962 -6.45 0 0 -2.93796 -0.240183 -3.18242 -6.45 -5.68434e-14 0 -40.2051 -38.8491 -7.52003 0 -32.4 -2 -20.8156 -54.4905 -49.9346 2.84217e-14 -25.65 2 -10.9836 0.476318 7.77961 0.5 -1.5 2.65 -33.4263 45.0474 -46.7072 1.13687e-13 -3.8 3.7 0.723803 0.703912 0.179282 1.13687e-13 -3 2.7 0.186598 0.640809 0.500672 5.68434e-14 -1.9 1.6 -5.01952e-05 2.1898e-05 -3.19216e-05 -5.68434e-14 -8.3 1.9 42.1463 26.1944 -11.1663 0 -4.5 0 89.8667 0.00371789 -0.00934415 0 -3.4 0 83.4563 0.0434575 -0.0018833 0.25 -2.2 0.4 -5.01952e-05 2.1898e-05 -3.19216e-05 -5.68434e-14 -8.3 1 24.5162 25.8027 -6.80645 -2.84217e-14 -4.65 0 80.5011 -0.00718729 0.00129096 0 -3.3 0 64.3914 0.0251084 0.0254094 0.5 -2.15 -0.8 -5.01952e-05 2.1898e-05 -3.19216e-05 -5.68434e-14 -7.75 -0.2 45.3967 26.0769 -14.0065 0 -3.8 0 54.9015 -0.00246786 -0.0045132 0 -3.4 0 37.9913 -0.046213 0.0309037 0.75 -1.75 -1.85 -5.01952e-05 2.1898e-05 -3.19216e-05 -5.68434e-14 -7.15 -1 41.0751 28.9476 -14.6279 -5.68434e-14 -3 0 64.8678 0.0345273 -0.0535567 0 -2.35 0 46.4799 -0.00314793 -0.0244235 8 0 -1.13687e-13 19.9986 -56.6048 4.73502 0 -45 -1 2.15111 70.0851 -19.8312 0 -41 -2 -10.4493 10.2366 19.7357 0 -7.5 12.5 4.18656e-06 -3.09928e-07 -1.0235e-05 1.13687e-13 2.84217e-14 4 -1.01153 1.66041 18.8102 -8 2.84217e-14 0 -3.10088 -50.5784 -9.03931 -5.68434e-14 -45 -1 -3.82713 55.8325 16.7005 0 -41 -2 -8.385 22.8407 4.31469 0 -7.5 12.5 -9.61879e-07 -12.058 -4.07439e-05 0 0 4 -4.46413 13.3191 58.9373 
-348.07 71.9583 812.575 -9.15288 13.7688 -171.353 0 8 0 1.48558 18.839 -11.251 0 8 0 0.135651 9.18446 1.57115 0 8 0 0.0993754 4.59945 0.786847 -5.68434e-14 8 0 0.0993208 4.58495 0.784361 0 17 0 0.314102 3.56644 1.63524 0 10.8 0 0.566998 8.31856 3.80629 5 17 0 -0.608411 1.75421 7.06903 6.45 0 0 -2.04516 -0.675449 -4.80341 6.45 2.84217e-14 0 35.8877 -60.2632 1.28885 0 -32.4 -2 -12.1957 -29.1735 -8.23801 0 -25.65 2 25.1212 -40.1824 -25.3128 -0.5 -1.5 2.65 13.42 -21.3638 -5.39286 0 -3.8 3.7 0.110294 40.4315 -0.158417 0 -3 2.7 0.0230579 10.8889 -0.0198597 0 -1.9 1.6 -7.16577e-06 5.46474e-06 1.19421e-05 5.68434e-14 -8.3 1.9 -14.5488 -26.4457 -3.15624 0 -4.5 5.68434e-14 -0.152691 0.0889502 -0.115727 -2.84217e-14 -3.4 -5.68434e-14 -4.34757e-06 -0.0488814 -0.116946 -0.25 -2.2 0.4 -7.16577e-06 5.46474e-06 1.19421e-05 0 -8.3 1 -10.0647 -19.4558 -1.55785 2.84217e-14 -4.65 -5.68434e-14 -3.02442 0.0448009 -2.83515e-05 0 -3.3 0 -3.09302e-05 0.00612654 3.59273e-05 -0.5 -2.15 -0.8 -7.16577e-06 5.46474e-06 1.19421e-05 -5.68434e-14 -7.75 -0.2 -3.46765 -7.00832 -0.130488 0 -3.8 5.68434e-14 -2.33585 0.0585883 7.59098e-05 0 -3.4 0 -3.26615e-05 0.064997 4.23675e-05 -0.75 -1.75 -1.85 -7.16577e-06 5.46474e-06 1.19421e-05 -1.13687e-13 -7.15 -1 -0.010339 0.814067 0.0103119 0 -3 -5.68434e-14 -0.203965 0.140265 0.104209 0 -2.35 0 -0.000215929 0.124933 0.0902702 -5 17 0 11.6077 -1.22136 0.714684 -6.45 5.68434e-14 0 -2.93147 -0.262497 -3.17898 -6.45 -5.68434e-14 -1.13687e-13 -40.1021 -38.8756 -7.497 0 -32.4 -2 -20.8668 -54.3537 -49.8736 0 -25.65 2 -11.0315 0.539561 7.77482 0.5 -1.5 2.65 -33.3515 45.068 -46.6038 0 -3.8 3.7 0.723329 0.797274 0.17993 0 -3 2.7 0.186592 0.639898 0.500628 5.68434e-14 -1.9 1.6 -5.01952e-05 2.1898e-05 -3.19216e-05 0 -8.3 1.9 45.1205 25.674 -11.7985 0 -4.5 -5.68434e-14 89.3796 0.00412471 -0.010248 0 -3.4 0 82.0899 0.0383805 -0.00250215 0.25 -2.2 0.4 -5.01952e-05 2.1898e-05 -3.19216e-05 0 -8.3 1 25.147 25.4886 -6.87671 0 -4.65 0 80.7164 -0.00745634 0.00136613 0 -3.3 0 64.7636 0.0255435 0.0260143 0.5 -2.15 -0.8 -5.01952e-05 2.1898e-05 -3.19216e-05 5.68434e-14 -7.75 -0.2 45.832 25.87 -14.0286 1.13687e-13 -3.8 -1.13687e-13 54.9717 -0.00260087 -0.00427482 -1.13687e-13 -3.4 0 38.0443 -0.0475872 0.0324368 0.75 -1.75 -1.85 -5.01952e-05 2.1898e-05 -3.19216e-05 0 -7.15 -1 40.9201 28.8419 -14.5085 0 -3 0 65.077 0.0360362 -0.0556529 0 -2.35 0 46.6887 -0.00302017 -0.0249553 8 2.84217e-14 -1.13687e-13 19.8807 -56.4805 4.63682 0 -45 -1 2.18373 70.166 -19.9053 5.68434e-14 -41 -2 -10.3926 10.2446 19.767 0 -7.5 12.5 4.18656e-06 -3.09928e-07 -1.0235e-05 0 -2.84217e-14 4 -1.04621 1.66719 18.8027 -8 0 0 -3.09414 -50.4052 -8.96151 -5.68434e-14 -45 -1 -3.8086 55.8381 16.6614 0 -41 -2 -8.38114 22.8401 4.32091 0 -7.5 12.5 -9.64936e-07 -12.0622 -4.07446e-05 0 0 4 -4.45434 13.3555 58.9367 
-348.092 71.951 812.591 -9.20535 13.9489 -171.376 0 8 0 1.42157 18.9016 -11.247 -5.68434e-14 8 0 0.146857 9.18311 1.57563 5.68434e-14 8 1.13687e-13 0.105053 4.59829 0.789529 -5.68434e-14 8 0 0.104835 4.58377 0.786816 5.68434e-14 17 -1.13687e-13 0.348458 3.60454 1.65074 0 10.8 1.13687e-13 0.644217 8.40857 3.83941 5 17 -1.13687e-13 -0.57841 1.77802 7.05413 6.45 -5.68434e-14 0 -2.04659 -0.675426 -4.78725 6.45 0 0 35.6525 -60.0522 1.05528 0 -32.4 -2 -12.1218 -29.2696 -8.45096 5.68434e-14 -25.65 2 25.6665 -40.6312 -24.8411 -0.5 -1.5 2.65 13.0484 -21.4463 -5.66925 0 -3.8 3.7 0.111663 40.6195 -0.159709 0 -3 2.7 0.022867 10.5554 -0.0197653 -1.13687e-13 -1.9 1.6 -7.16577e-06 5.46474e-06 1.19421e-05 0 -8.3 1.9 -14.2946 -26.2814 -3.08181 2.84217e-14 -4.5 0 -0.152692 0.088855 -0.115414 -2.84217e-14 -3.4 0 -5.89612e-06 -0.0493187 -0.116885 -0.25 -2.2 0.4 -7.16577e-06 5.46474e-06 1.19421e-05 -5.68434e-14 -8.3 1 -9.90263 -19.3166 -1.52217 0 -4.65 5.68434e-14 -3.02459 0.0440784 -4.16207e-05 -2.84217e-14 -3.3 0 -3.08691e-05 0.00641701 3.57584e-05 -0.5 -2.15 -0.8 -7.16577e-06 5.46474e-06 1.19421e-05 -5.68434e-14 -7.75 -0.2 -3.4112 -6.90653 -0.125284 0 -3.8 0 -2.3355 0.0584543 7.72884e-05 0 -3.4 0 -3.30979e-05 0.0648404 4.20475e-05 -0.75 -1.75 -1.85 -7.16577e-06 5.46474e-06 1.19421e-05 0 -7.15 -1 -0.0115285 0.873711 0.0102433 5.68434e-14 -3 -5.68434e-14 -0.204679 0.140022 0.10362 0 -2.35 2.84217e-14 -0.000215494 0.124722 0.0901789 -5 17 -1.13687e-13 11.6336 -1.15828 0.6792 -6.45 0 0 -2.92832 -0.27915 -3.17393 -6.45 5.68434e-14 -1.13687e-13 -40.0236 -38.8961 -7.49051 0 -32.4 -2 -20.9358 -54.2283 -49.8007 0 -25.65 2 -11.0537 0.624435 7.79865 0.5 -1.5 2.65 -33.2344 45.1425 -46.5747 1.13687e-13 -3.8 3.7 0.722945 0.863471 0.180588 1.13687e-13 -3 2.7 0.186586 0.63898 0.500581 5.68434e-14 -1.9 1.6 -5.01952e-05 2.1898e-05 -3.19216e-05 0 -8.3 1.9 47.8149 25.1044 -12.3225 0 -4.5 0 88.8347 0.00451462 -0.0111857 5.68434e-14 -3.4 0 80.5745 0.0279713 -0.00305061 0.25 -2.2 0.4 -5.01952e-05 2.1898e-05 -3.19216e-05 0 -8.3 1 25.6704 25.167 -6.91405 8.52651e-14 -4.65 0 81.0061 -0.00771778 0.0014407 1.13687e-13 -3.3 0 65.2675 0.0259337 0.0265235 0.5 -2.15 -0.8 -5.01952e-05 2.1898e-05 -3.19216e-05 0 -7.75 -0.2 46.0751 25.6894 -13.9952 0 -3.8 -5.68434e-14 55.102 -0.00271995 -0.00404082 -1.13687e-13 -3.4 0 38.143 -0.0487582 0.033945 0.75 -1.75 -1.85 -5.01952e-05 2.1898e-05 -3.19216e-05 0 -7.15 -1 40.5229 28.7529 -14.3032 0 -3 0 65.388 0.0374922 -0.0576883 0 -2.35 0 46.9985 -0.00289527 -0.025453 8 2.84217e-14 -1.13687e-13 19.7799 -56.3671 4.5617 1.13687e-13 -45 -1 2.22496 70.254 -19.9899 5.68434e-14 -41 -2 -10.3429 10.2506 19.7975 1.13687e-13 -7.5 12.5 4.18656e-06 -3.09928e-07 -1.0235e-05 0 0 4 -1.06478 1.67273 18.7974 -8 0 0 -3.09021 -50.2386 -8.89194 0 -45 -1 -3.79023 55.8434 16.6225 0 -41 -2 -8.37801 22.8391 4.32881 0 -7.5 12.5 -9.7002e-07 -12.0692 -4.07456e-05 1.13687e-13 -4.44089e-16 4 -4.4426 13.3631 58.9352 
